<svg width="61" height="61" viewBox="0 0 61 61" fill="none" xmlns="http://www.w3.org/2000/svg">
<circle cx="30.8906" cy="30.5049" r="30" fill="#333333"/>
<path d="M34.8864 26.5093C38.2673 29.8937 38.2209 35.3198 34.9067 38.6524C34.9005 38.6591 34.8931 38.6665 34.8864 38.6733L31.0837 42.4759C27.7298 45.8299 22.2731 45.8294 18.9197 42.4759C15.5658 39.1226 15.5658 33.6653 18.9197 30.312L21.0195 28.2123C21.5763 27.6554 22.5352 28.0255 22.5639 28.8124C22.6006 29.8153 22.7804 30.8228 23.1123 31.7957C23.2247 32.1252 23.1444 32.4896 22.8982 32.7358L22.1577 33.4763C20.5717 35.0622 20.522 37.6445 22.0923 39.246C23.6781 40.8632 26.2846 40.8728 27.8826 39.2748L31.6852 35.4727C33.2805 33.8775 33.2738 31.299 31.6852 29.7105C31.4758 29.5014 31.2648 29.339 31.1001 29.2256C30.9835 29.1455 30.8872 29.0393 30.819 28.9155C30.7507 28.7916 30.7124 28.6535 30.7069 28.5122C30.6845 27.9143 30.8964 27.2981 31.3689 26.8256L32.5603 25.6341C32.8727 25.3217 33.3628 25.2834 33.7251 25.5362C34.14 25.8259 34.5285 26.1515 34.8864 26.5093ZM42.8615 18.5338C39.5081 15.1804 34.0514 15.1799 30.6975 18.5338L26.8948 22.3365C26.8881 22.3433 26.8807 22.3506 26.8745 22.3574C23.5604 25.6899 23.5139 31.116 26.8948 34.5004C27.2526 34.8582 27.6412 35.1838 28.0561 35.4735C28.4183 35.7263 28.9085 35.6879 29.2209 35.3756L30.4122 34.1841C30.8847 33.7116 31.0966 33.0954 31.0742 32.4975C31.0688 32.3562 31.0304 32.2181 30.9622 32.0942C30.8939 31.9704 30.7977 31.8642 30.6811 31.7841C30.5163 31.6707 30.3053 31.5083 30.0959 31.2993C28.5073 29.7107 28.5007 27.1322 30.0959 25.537L33.8986 21.7349C35.4965 20.1369 38.103 20.1466 39.6888 21.7638C41.2591 23.3652 41.2095 25.9475 39.6235 27.5334L38.8829 28.2739C38.6368 28.5201 38.5565 28.8845 38.6689 29.214C39.0007 30.1869 39.1805 31.1945 39.2172 32.1973C39.246 32.9842 40.2049 33.3543 40.7617 32.7975L42.8614 30.6977C46.2154 27.3444 46.2154 21.8872 42.8615 18.5338Z" fill="white"/>
</svg>
