<svg width="441" height="314" viewBox="0 0 441 314" fill="none" xmlns="http://www.w3.org/2000/svg">
<path d="M431.95 172.426C432.284 172.426 432.609 172.436 432.933 172.456V35.5357C432.609 35.5457 432.275 35.5657 431.95 35.5657C416.4 35.5657 403.78 22.0557 403.613 5.32568H36.6946C36.6946 22.2057 24.0096 35.8957 8.34814 35.8957V172.436C24.0004 172.436 36.6946 186.116 36.6946 203.006H403.613C403.613 186.126 416.298 172.436 431.959 172.436L431.95 172.426Z" stroke="#FFC880" stroke-width="2" stroke-linecap="round" stroke-linejoin="round"/>
<path d="M405.783 14.6255H35.5077C25.2705 14.6255 16.9717 23.5753 16.9717 34.6155V173.705C16.9717 184.746 25.2705 193.695 35.5077 193.695H405.783C416.02 193.695 424.319 184.746 424.319 173.705V34.6155C424.319 23.5753 416.02 14.6255 405.783 14.6255Z" stroke="#FFC880" stroke-width="2" stroke-linecap="round" stroke-linejoin="round"/>
<rect x="111.953" y="156.199" width="217.376" height="74.9932" rx="23" fill="#FFF1DD" stroke="#FFC880" stroke-width="2"/>
<path d="M425.781 206.331L425.228 202.458H425.764C425.928 202.916 426.084 203.27 426.24 203.53C426.396 203.781 426.577 203.954 426.785 204.049C426.993 204.144 427.261 204.196 427.59 204.196H429.969C429.511 203.807 429.043 203.392 428.576 202.951C428.109 202.51 427.676 202.008 427.287 201.455C426.889 200.901 426.577 200.279 426.344 199.57C426.101 198.869 425.989 198.056 425.989 197.157C425.989 195.722 426.301 194.468 426.915 193.396C427.529 192.323 428.369 191.493 429.433 190.905C430.497 190.309 431.683 190.015 433.007 190.015C434.33 190.015 435.507 190.3 436.537 190.879C437.567 191.459 438.38 192.271 438.968 193.318C439.557 194.364 439.851 195.575 439.851 196.958C439.851 197.806 439.738 198.566 439.513 199.241C439.289 199.915 438.986 200.529 438.605 201.091C438.216 201.645 437.774 202.181 437.281 202.682C436.779 203.184 436.26 203.703 435.706 204.222H438.423C438.735 204.222 438.986 204.178 439.176 204.092C439.366 204.005 439.539 203.833 439.687 203.573C439.834 203.314 439.981 202.942 440.128 202.475H440.638L439.989 206.349H433.958L433.759 205.839C434.46 204.818 435.005 203.85 435.403 202.942C435.801 202.034 436.087 201.126 436.26 200.201C436.433 199.284 436.52 198.298 436.52 197.261C436.52 195.644 436.355 194.355 436.018 193.413C435.689 192.462 435.239 191.779 434.694 191.355C434.149 190.931 433.526 190.724 432.842 190.724C432.219 190.724 431.639 190.914 431.103 191.303C430.566 191.692 430.134 192.349 429.814 193.283C429.485 194.217 429.32 195.514 429.32 197.174C429.32 198.316 429.416 199.362 429.597 200.305C429.779 201.247 430.073 202.155 430.48 203.028C430.878 203.902 431.406 204.836 432.063 205.83L431.838 206.34H425.781V206.331Z" fill="#FFC880"/>
<path d="M1.19636 206.331L0.642578 202.458H1.17906C1.34346 202.916 1.49921 203.27 1.65497 203.53C1.81072 203.781 1.99243 203.954 2.2001 204.049C2.40777 204.144 2.67601 204.196 3.00482 204.196H5.38437C4.92576 203.807 4.45851 203.392 3.99125 202.951C3.52399 202.51 3.09135 202.008 2.70197 201.455C2.30393 200.901 1.99243 200.279 1.7588 199.57C1.51652 198.869 1.40403 198.056 1.40403 197.157C1.40403 195.722 1.71554 194.468 2.32989 193.396C2.94425 192.323 3.78358 191.493 4.84789 190.905C5.91219 190.309 7.09764 190.015 8.42153 190.015C9.74543 190.015 10.9222 190.3 11.9519 190.879C12.9816 191.459 13.795 192.271 14.3834 193.318C14.9718 194.364 15.266 195.575 15.266 196.958C15.266 197.806 15.1535 198.566 14.9285 199.241C14.7035 199.915 14.4007 200.529 14.02 201.091C13.6306 201.645 13.1893 202.181 12.6961 202.682C12.1942 203.184 11.675 203.703 11.1212 204.222H13.8382C14.1497 204.222 14.4007 204.178 14.591 204.092C14.7814 204.005 14.9545 203.833 15.1016 203.573C15.2487 203.314 15.3958 202.942 15.5429 202.475H16.0534L15.4044 206.349H9.37335L9.17433 205.839C9.87522 204.818 10.4204 203.85 10.8184 202.942C11.2164 202.034 11.502 201.126 11.675 200.201C11.8481 199.284 11.9346 198.298 11.9346 197.261C11.9346 195.644 11.7702 194.355 11.4327 193.413C11.1039 192.462 10.654 191.779 10.1088 191.355C9.56371 190.931 8.94071 190.724 8.25713 190.724C7.63412 190.724 7.05437 190.914 6.5179 191.303C5.98142 191.692 5.54877 192.349 5.22861 193.283C4.8998 194.217 4.7354 195.514 4.7354 197.174C4.7354 198.316 4.83058 199.362 5.01229 200.305C5.194 201.247 5.4882 202.155 5.89489 203.028C6.29292 203.902 6.82075 204.836 7.47837 205.83L7.25339 206.34H1.19636V206.331Z" fill="#FFC880"/>
<path d="M425.781 16.8076L425.228 12.9337H425.764C425.928 13.392 426.084 13.7465 426.24 14.0059C426.396 14.2567 426.577 14.4296 426.785 14.5248C426.993 14.6199 427.261 14.6718 427.59 14.6718H429.969C429.511 14.2826 429.043 13.8676 428.576 13.4266C428.109 12.9856 427.676 12.4841 427.287 11.9307C426.889 11.3773 426.577 10.7547 426.344 10.0456C426.101 9.34522 425.989 8.53239 425.989 7.63311C425.989 6.19771 426.301 4.94389 426.915 3.87167C427.529 2.79944 428.369 1.96935 429.433 1.38136C430.497 0.784719 431.683 0.490723 433.007 0.490723C434.33 0.490723 435.507 0.776073 436.537 1.35542C437.567 1.93477 438.38 2.74756 438.968 3.79385C439.557 4.84013 439.851 6.05073 439.851 7.43425C439.851 8.28165 439.738 9.04257 439.513 9.71703C439.289 10.3915 438.986 11.0054 438.605 11.5675C438.216 12.1209 437.774 12.657 437.281 13.1585C436.779 13.6601 436.26 14.1789 435.706 14.6977H438.423C438.735 14.6977 438.986 14.6545 439.176 14.568C439.366 14.4815 439.539 14.3086 439.687 14.0492C439.834 13.7898 439.981 13.4179 440.128 12.951H440.638L439.989 16.8249H433.958L433.759 16.3147C434.46 15.2943 435.005 14.3259 435.403 13.4179C435.801 12.51 436.087 11.6021 436.26 10.6769C436.433 9.76028 436.52 8.77451 436.52 7.73687C436.52 6.11988 436.355 4.8315 436.018 3.88898C435.689 2.93781 435.239 2.2547 434.694 1.83099C434.149 1.40729 433.526 1.19975 432.842 1.19975C432.219 1.19975 431.639 1.39 431.103 1.77911C430.566 2.16823 430.134 2.82541 429.814 3.75928C429.485 4.69315 429.32 5.9902 429.32 7.65042C429.32 8.79182 429.416 9.8381 429.597 10.7806C429.779 11.7231 430.073 12.6311 430.48 13.5044C430.878 14.3778 431.406 15.3116 432.063 16.306L431.838 16.8162H425.781V16.8076Z" fill="#FFC880"/>
<path d="M1.19636 16.8076L0.642578 12.9337H1.17906C1.34346 13.392 1.49921 13.7465 1.65497 14.0059C1.81072 14.2567 1.99243 14.4296 2.2001 14.5248C2.40777 14.6199 2.67601 14.6718 3.00482 14.6718H5.38437C4.92576 14.2826 4.45851 13.8676 3.99125 13.4266C3.52399 12.9856 3.09135 12.4841 2.70197 11.9307C2.30393 11.3773 1.99243 10.7547 1.7588 10.0456C1.51652 9.34522 1.40403 8.53239 1.40403 7.63311C1.40403 6.19771 1.71554 4.94389 2.32989 3.87167C2.94425 2.79944 3.78358 1.96935 4.84789 1.38136C5.91219 0.784719 7.09764 0.490723 8.42153 0.490723C9.74543 0.490723 10.9222 0.776073 11.9519 1.35542C12.9816 1.93477 13.795 2.74756 14.3834 3.79385C14.9718 4.84013 15.266 6.05073 15.266 7.43425C15.266 8.28165 15.1535 9.04257 14.9285 9.71703C14.7035 10.3915 14.4007 11.0054 14.02 11.5675C13.6306 12.1209 13.1893 12.657 12.6961 13.1585C12.1942 13.6601 11.675 14.1789 11.1212 14.6977H13.8382C14.1497 14.6977 14.4007 14.6545 14.591 14.568C14.7814 14.4815 14.9545 14.3086 15.1016 14.0492C15.2487 13.7898 15.3958 13.4179 15.5429 12.951H16.0534L15.4044 16.8249H9.37335L9.17433 16.3147C9.87522 15.2943 10.4204 14.3259 10.8184 13.4179C11.2164 12.51 11.502 11.6021 11.675 10.6769C11.8481 9.76028 11.9346 8.77451 11.9346 7.73687C11.9346 6.11988 11.7702 4.8315 11.4327 3.88898C11.1039 2.93781 10.654 2.2547 10.1088 1.83099C9.56371 1.40729 8.94071 1.19975 8.25713 1.19975C7.63412 1.19975 7.05437 1.39 6.5179 1.77911C5.98142 2.16823 5.54877 2.82541 5.22861 3.75928C4.8998 4.69315 4.7354 5.9902 4.7354 7.65042C4.7354 8.79182 4.83058 9.8381 5.01229 10.7806C5.194 11.7231 5.4882 12.6311 5.89489 13.5044C6.29292 14.3778 6.82075 15.3116 7.47837 16.306L7.25339 16.8162H1.19636V16.8076Z" fill="#FFC880"/>
<path d="M224.557 295.645L240.561 293.727L224.557 291.789L227.654 286.714L222.579 289.791L220.641 273.787L218.702 289.791L213.647 286.714L216.724 291.789L200.72 293.727L216.724 295.645L213.647 300.72L218.702 297.644L220.641 313.648L222.579 297.644L227.654 300.72L224.557 295.645Z" fill="#FFC880"/>
</svg>
